<?xml version="1.0" encoding="UTF-8"?><svg id="Layer_2" xmlns="http://www.w3.org/2000/svg" viewBox="0 0 640 480"><defs><style>.cls-1{fill:#fff;}.cls-2{fill:#bebebe;}</style></defs><g id="Layer_3"><path class="cls-1" d="m0,0h640v480H0V0Z"/><polygon class="cls-2" points="590.83 480 640 430.83 640 386.63 546.63 480 590.83 480"/><polygon class="cls-2" points="640 480 640 475.02 635.02 480 640 480"/><polygon class="cls-2" points="502.44 480 640 342.44 640 298.25 458.25 480 502.44 480"/><polygon class="cls-2" points="325.66 480 640 165.66 640 121.47 281.47 480 325.66 480"/><polygon class="cls-2" points="414.05 480 640 254.05 640 209.86 369.86 480 414.05 480"/><polygon class="cls-2" points="237.27 480 640 77.27 640 33.08 193.08 480 237.27 480"/><polygon class="cls-2" points="60.5 480 540.5 0 496.3 0 16.3 480 60.5 480"/><polygon class="cls-2" points="148.89 480 628.89 0 584.69 0 104.69 480 148.89 480"/><polygon class="cls-2" points="0 452.11 452.11 0 407.92 0 0 407.92 0 452.11"/><polygon class="cls-2" points="0 275.33 275.33 0 231.14 0 0 231.14 0 275.33"/><polygon class="cls-2" points="0 363.72 363.72 0 319.53 0 0 319.53 0 363.72"/><polygon class="cls-2" points="0 186.94 186.94 0 142.75 0 0 142.75 0 186.94"/><polygon class="cls-2" points="10.17 0 0 0 0 10.17 10.17 0"/><polygon class="cls-2" points="0 98.56 98.56 0 54.36 0 0 54.36 0 98.56"/></g></svg>